:FULLY-SPECIFIED
:FORCE-ALL-JOINTS-BE-3DOF
:DEGREES
204
root 4.86894 15.1115 -25.4376 7.17362 -0.425561 5.48647
lfemur 6.28467 -2.33788 1.25538
ltibia 6.83999 -0 0
lfoot -33.5996 -13.8957 -0.0326937
ltoes 48.1349 -0 0
rfemur -30.0396 -18.9929 -8.65683
rtibia 49.688 -0 0
rfoot -27.3707 16.5588 0.00289864
rtoes 59.7428 -0 0
lowerback -3.13962 -1.94184 -0.440365
upperback -0.527494 -2.49714 -7.46385
thorax 0.896104 -1.25894 -7.65297
lowerneck -11.745 0.523388 6.06025
upperneck 3.41145 -0.374862 2.55173
head 3.18072 0.0185597 -0.25387
lclavicle 1.92821e-014 5.40694e-014 0
lhumerus -58.2124 -45.4507 114.694
lradius 54.6317 -0 0
lwrist 27.4018 0 0
lhand 39.2276 31.5284 0.0123465
lfingers 7.12502 -0 0
lthumb 61.7499 43.3155 0.00740608
rclavicle 1.92821e-014 5.40694e-014 0
rhumerus -10.0541 -2.22593 -12.2684
rradius 75.3062 -0 0
rwrist -28.7238 0 0
rhand -6.85497 -41.9659 8.47588
rfingers 7.12502 -0 0
rthumb 19.7632 20.0751 -26.8107
205
root 4.84884 15.0985 -25.4527 7.24209 -0.484037 5.4184
lfemur 6.17603 -2.50296 1.337
ltibia 6.93113 -0 0
lfoot -33.8503 -13.3976 -0.0326937
ltoes 48.1038 -0 0
rfemur -30.4257 -19.3036 -8.4456
rtibia 50.038 -0 0
rfoot -27.3339 16.86 0.00289864
rtoes 59.8333 -0 0
lowerback -2.91078 -1.87487 -0.480325
upperback -0.562686 -2.4196 -7.40586
thorax 0.745429 -1.22279 -7.55353
lowerneck -11.6059 0.545498 6.1706
upperneck 3.41619 -0.345979 2.48325
head 3.15649 0.0307266 -0.293774
lclavicle 1.92821e-014 5.40694e-014 0
lhumerus -58.4462 -45.5663 115.042
lradius 54.6657 -0 0
lwrist 27.0326 0 0
lhand 39.1128 31.1174 0.0123465
lfingers 7.12502 -0 0
lthumb 61.6539 43.0209 0.00740608
rclavicle 1.92821e-014 5.40694e-014 0
rhumerus -9.78771 -7.37311 -12.7837
rradius 73.9214 -0 0
rwrist -27.8608 0 0
rhand -14.6352 -46.439 8.47588
rfingers 7.12502 -0 0
rthumb 9.88358 34.4709 -26.8107
206
root 4.82875 15.0854 -25.4678 7.31063 -0.542431 5.35025
lfemur 6.06714 -2.66789 1.41895
ltibia 7.02227 -0 0
lfoot -34.1011 -12.8995 -0.0305136
ltoes 48.0726 -0 0
rfemur -30.8137 -19.613 -8.23174
rtibia 50.3879 -0 0
rfoot -27.2971 17.1611 0.00270538
rtoes 59.9238 -0 0
lowerback -2.682 -1.80774 -0.520015
upperback -0.597797 -2.34203 -7.34792
thorax 0.594819 -1.18638 -7.45419
lowerneck -11.4668 0.567339 6.28099
upperneck 3.42089 -0.317091 2.41478
head 3.13225 0.0428766 -0.333684
lclavicle 1.92821e-014 5.40694e-014 0
lhumerus -58.6816 -45.6809 115.392
lradius 54.6997 -0 0
lwrist 26.6634 0 0
lhand 38.9981 30.7063 0.0115233
lfingers 7.12502 -0 0
lthumb 61.5578 42.7264 0.00691231
rclavicle 1.92821e-014 5.40694e-014 0
rhumerus -9.46973 -12.5176 -13.3316
rradius 72.5365 -0 0
rwrist -26.9977 0 0
rhand -22.3861 -50.8676 7.87779
rfingers 7.12502 -0 0
rthumb 0.396998 48.5278 -24.6389
207
root 4.80865 15.0724 -25.4829 7.37924 -0.600744 5.28204
lfemur 5.958 -2.83266 1.50121
ltibia 7.11341 -0 0
lfoot -34.3518 -12.4014 -0.0261537
ltoes 48.0415 -0 0
rfemur -31.2036 -19.921 -8.01524
rtibia 50.7379 -0 0
rfoot -27.2604 17.4623 0.00231888
rtoes 60.0143 -0 0
lowerback -2.45327 -1.74045 -0.559435
upperback -0.632828 -2.26442 -7.29003
thorax 0.444275 -1.1497 -7.35495
lowerneck -11.3276 0.588913 6.39144
upperneck 3.42556 -0.288197 2.3463
head 3.108 0.0550098 -0.373598
lclavicle 1.92821e-014 5.40694e-014 0
lhumerus -58.9184 -45.7945 115.743
lradius 54.7337 -0 0
lwrist 26.2942 0 0
lhand 38.8834 30.2952 0.00987696
lfingers 7.12502 -0 0
lthumb 61.4618 42.4318 0.00592478
rclavicle 1.92821e-014 5.40694e-014 0
rhumerus -9.09241 -17.6587 -13.9229
rradius 71.1517 -0 0
rwrist -26.1347 0 0
rhand -30.0522 -55.166 6.69686
rfingers 7.12502 -0 0
rthumb -8.04394 61.7063 -20.5135
208
root 4.78855 15.0594 -25.498 7.44793 -0.658974 5.21376
lfemur 5.84861 -2.99727 1.58381
ltibia 7.20454 -0 0
lfoot -34.6025 -11.9033 -0.0196143
ltoes 48.0103 -0 0
rfemur -31.5956 -20.2276 -7.79609
rtibia 51.0878 -0 0
rfoot -27.2236 17.7634 0.00173913
rtoes 60.1049 -0 0
lowerback -2.22459 -1.673 -0.598585
upperback -0.667778 -2.18677 -7.23219
thorax 0.293796 -1.11277 -7.25581
lowerneck -11.1884 0.610218 6.50194
upperneck 3.4302 -0.259298 2.27783
head 3.08374 0.067126 -0.413518
lclavicle 1.92821e-014 5.40694e-014 0
lhumerus -59.1567 -45.9071 116.095
lradius 54.7678 -0 0
lwrist 25.9249 0 0
lhand 38.7687 29.8841 0.00740751
lfingers 7.12502 -0 0
lthumb 61.3657 42.1373 0.00444352
rclavicle 1.92821e-014 5.40694e-014 0
rhumerus -8.64494 -22.7956 -14.5708
rradius 69.7668 -0 0
rwrist -25.2716 0 0
rhand -37.5886 -59.2572 4.96212
rfingers 7.12502 -0 0
rthumb -15.0792 73.7752 -14.7846
209
root 4.76846 15.0463 -25.5131 7.51668 -0.717123 5.1454
lfemur 5.73896 -3.16172 1.66673
ltibia 7.29568 -0 0
lfoot -34.8531 -11.4052 -0.0108962
ltoes 47.9792 -0 0
rfemur -31.9896 -20.5328 -7.57427
rtibia 51.4378 -0 0
rfoot -27.1869 18.0646 0.000966167
rtoes 60.1954 -0 0
lowerback -1.99597 -1.6054 -0.637464
upperback -0.702648 -2.10909 -7.17441
thorax 0.143383 -1.07557 -7.15677
lowerneck -11.0492 0.631255 6.6125
upperneck 3.4348 -0.230393 2.20937
head 3.05948 0.0792254 -0.453442
lclavicle 1.92821e-014 5.40694e-014 0
lhumerus -59.3965 -46.0187 116.449
lradius 54.8018 -0 0
lwrist 25.5557 0 0
lhand 38.654 29.4731 0.00411513
lfingers 7.12502 -0 0
lthumb 61.2697 41.8427 0.00246857
rclavicle 1.92821e-014 5.40694e-014 0
rhumerus -8.11243 -27.9272 -15.2921
rradius 68.382 -0 0
rwrist -24.4086 0 0
rhand -44.965 -63.0762 2.71375
rfingers 7.12502 -0 0
rthumb -20.6092 84.7932 -7.83145
